<?xml version="1.0" encoding="UTF-8" standalone="no"?>
<!-- Created with Inkscape (http://www.inkscape.org/) -->

<svg
   width="606"
   height="606"
   viewBox="0 0 160.33749 160.33749"
   version="1.1"
   id="svg5"
   inkscape:version="1.1 (c68e22c387, 2021-05-23)"
   sodipodi:docname="Символика.svg"
   inkscape:export-filename="C:\Users\alex6\Desktop\test-site\psd\Символика.png"
   inkscape:export-xdpi="300"
   inkscape:export-ydpi="300"
   xmlns:inkscape="http://www.inkscape.org/namespaces/inkscape"
   xmlns:sodipodi="http://sodipodi.sourceforge.net/DTD/sodipodi-0.dtd"
   xmlns="http://www.w3.org/2000/svg"
   xmlns:svg="http://www.w3.org/2000/svg">
  <sodipodi:namedview
     id="namedview7"
     pagecolor="#ffffff"
     bordercolor="#666666"
     borderopacity="1.0"
     inkscape:pageshadow="2"
     inkscape:pageopacity="0.0"
     inkscape:pagecheckerboard="0"
     inkscape:document-units="px"
     showgrid="false"
     inkscape:zoom="1.4142136"
     inkscape:cx="334.10795"
     inkscape:cy="309.71277"
     inkscape:window-width="2487"
     inkscape:window-height="1368"
     inkscape:window-x="944"
     inkscape:window-y="0"
     inkscape:window-maximized="0"
     inkscape:current-layer="layer1"
     units="px" />
  <defs
     id="defs2">
    <linearGradient
       id="linearGradient45237"
       inkscape:swatch="solid">
      <stop
         style="stop-color:#ea03b8;stop-opacity:1;"
         offset="0"
         id="stop45235" />
    </linearGradient>
    <rect
       x="163.29897"
       y="155.58406"
       width="335.95502"
       height="104.07101"
       id="rect2673" />
  </defs>
  <g
     inkscape:label="Слой 1"
     inkscape:groupmode="layer"
     id="layer1">
    <g
       aria-label="BNT"
       transform="matrix(0.79374987,0,0,0.79375168,-184.65404,-75.620825)"
       id="text2671"
       style="font-size:96px;line-height:1;text-align:center;text-anchor:middle;white-space:pre;shape-inside:url(#rect2673)"
       inkscape:label="Символика">
      <g
         id="g46838"
         inkscape:label="B"
         transform="translate(8.6939813,0.0013061)">
        <path
           d="m 289.97949,209.79269 q 0,5.0625 -2.0625,9.04688 -2.01562,3.98437 -5.57812,6.60937 -4.125,3.09375 -9.09375,4.40625 -4.92188,1.3125 -12.51563,1.3125 h -30.46875 v -69.79687 h 27.09375 q 8.4375,0 12.32813,0.5625 3.9375,0.5625 7.78125,2.48437 3.98437,2.01563 5.90625,5.4375 1.96875,3.375 1.96875,7.73438 0,5.0625 -2.67188,8.95312 -2.67187,3.84375 -7.54687,6 v 0.375 q 6.84375,1.35938 10.82812,5.625 4.03125,4.26563 4.03125,11.25 z m -23.0625,-28.6875 q 0,-1.73437 -0.89062,-3.46875 -0.84375,-1.73437 -3.04688,-2.57812 -1.96875,-0.75 -4.92187,-0.79688 -2.90625,-0.0937 -8.20313,-0.0937 h -1.6875 v 14.76563 h 2.8125 q 4.26563,0 7.26563,-0.14063 3,-0.14062 4.73437,-0.9375 2.4375,-1.07812 3.1875,-2.76562 0.75,-1.73438 0.75,-3.98438 z m 4.40625,28.40625 q 0,-3.32812 -1.3125,-5.10937 -1.26562,-1.82813 -4.35937,-2.71875 -2.10938,-0.60938 -5.8125,-0.65625 -3.70313,-0.0469 -7.73438,-0.0469 h -3.9375 v 17.39063 h 1.3125 q 7.59375,0 10.875,-0.0469 3.28125,-0.0469 6.04688,-1.21875 2.8125,-1.17187 3.84375,-3.09375 1.07812,-1.96875 1.07812,-4.5 z"
           style="font-weight:bold;-inkscape-font-specification:'sans-serif Bold';display:inline;fill:#e9f0ff;fill-opacity:1;stroke:none;stroke-width:1.00157;stroke-miterlimit:4;stroke-dasharray:none;stroke-opacity:1"
           id="path45374"
           inkscape:label="path43407 (задний фон)" />
        <path
           d="m 289.97949,209.79269 q 0,5.0625 -2.0625,9.04688 -2.01562,3.98437 -5.57812,6.60937 -4.125,3.09375 -9.09375,4.40625 -4.92188,1.3125 -12.51563,1.3125 h -30.46875 v -69.79687 h 27.09375 q 8.4375,0 12.32813,0.5625 3.9375,0.5625 7.78125,2.48437 3.98437,2.01563 5.90625,5.4375 1.96875,3.375 1.96875,7.73438 0,5.0625 -2.67188,8.95312 -2.67187,3.84375 -7.54687,6 v 0.375 q 6.84375,1.35938 10.82812,5.625 4.03125,4.26563 4.03125,11.25 z m -23.0625,-28.6875 q 0,-1.73437 -0.89062,-3.46875 -0.84375,-1.73437 -3.04688,-2.57812 -1.96875,-0.75 -4.92187,-0.79688 -2.90625,-0.0937 -8.20313,-0.0937 h -1.6875 v 14.76563 h 2.8125 q 4.26563,0 7.26563,-0.14063 3,-0.14062 4.73437,-0.9375 2.4375,-1.07812 3.1875,-2.76562 0.75,-1.73438 0.75,-3.98438 z m 4.40625,28.40625 q 0,-3.32812 -1.3125,-5.10937 -1.26562,-1.82813 -4.35937,-2.71875 -2.10938,-0.60938 -5.8125,-0.65625 -3.70313,-0.0469 -7.73438,-0.0469 h -3.9375 v 17.39063 h 1.3125 q 7.59375,0 10.875,-0.0469 3.28125,-0.0469 6.04688,-1.21875 2.8125,-1.17187 3.84375,-3.09375 1.07812,-1.96875 1.07812,-4.5 z"
           style="font-weight:bold;-inkscape-font-specification:'sans-serif Bold';display:inline;fill:none;fill-opacity:1;stroke:#e9f0ff;stroke-width:4.5;stroke-miterlimit:4;stroke-dasharray:none;stroke-opacity:1"
           id="path45415"
           inkscape:label="path43407 (белая обводка)" />
        <path
           d="m 289.97949,209.79269 q 0,5.0625 -2.0625,9.04688 -2.01562,3.98437 -5.57812,6.60937 -4.125,3.09375 -9.09375,4.40625 -4.92188,1.3125 -12.51563,1.3125 h -30.46875 v -69.79687 h 27.09375 q 8.4375,0 12.32813,0.5625 3.9375,0.5625 7.78125,2.48437 3.98437,2.01563 5.90625,5.4375 1.96875,3.375 1.96875,7.73438 0,5.0625 -2.67188,8.95312 -2.67187,3.84375 -7.54687,6 v 0.375 q 6.84375,1.35938 10.82812,5.625 4.03125,4.26563 4.03125,11.25 z m -23.0625,-28.6875 q 0,-1.73437 -0.89062,-3.46875 -0.84375,-1.73437 -3.04688,-2.57812 -1.96875,-0.75 -4.92187,-0.79688 -2.90625,-0.0937 -8.20313,-0.0937 h -1.6875 v 14.76563 h 2.8125 q 4.26563,0 7.26563,-0.14063 3,-0.14062 4.73437,-0.9375 2.4375,-1.07812 3.1875,-2.76562 0.75,-1.73438 0.75,-3.98438 z m 4.40625,28.40625 q 0,-3.32812 -1.3125,-5.10937 -1.26562,-1.82813 -4.35937,-2.71875 -2.10938,-0.60938 -5.8125,-0.65625 -3.70313,-0.0469 -7.73438,-0.0469 h -3.9375 v 17.39063 h 1.3125 q 7.59375,0 10.875,-0.0469 3.28125,-0.0469 6.04688,-1.21875 2.8125,-1.17187 3.84375,-3.09375 1.07812,-1.96875 1.07812,-4.5 z"
           style="font-weight:bold;-inkscape-font-specification:'sans-serif Bold';display:inline;fill:none;fill-opacity:1;stroke:#ea03b8;stroke-width:3;stroke-miterlimit:4;stroke-dasharray:none;stroke-opacity:1"
           id="path43407"
           inkscape:label="path43407 (контур)" />
      </g>
      <g
         id="g46844"
         inkscape:label="T"
         transform="translate(-10.960968)"
         style="display:inline">
        <path
           d="m 439.27637,174.87082 h -21.79688 v 56.29687 h -18 v -56.29687 h -21.79687 v -13.5 h 61.59375 z"
           style="font-weight:bold;-inkscape-font-specification:'sans-serif Bold';fill:#e9f0ff;fill-opacity:1;stroke:none"
           id="path43411"
           inkscape:label="path43411 (задний фон)" />
        <path
           d="m 439.27637,174.87082 h -21.79688 v 56.29687 h -18 v -56.29687 h -21.79687 v -13.5 h 61.59375 z"
           style="font-weight:bold;-inkscape-font-specification:'sans-serif Bold';fill:none;stroke:#e9f0ff;stroke-width:4.5;stroke-miterlimit:4;stroke-dasharray:none;stroke-opacity:1"
           id="path50900"
           inkscape:label="path43411 (обводка)" />
        <path
           d="m 377.68262,161.37082 h 61.59375 v 13.5 h -21.79688 v 56.29687 h -18 v -56.29687 l -23.09735,6e-4"
           style="font-weight:bold;-inkscape-font-specification:'sans-serif Bold';fill:none;stroke:#ea03b8;stroke-width:3;stroke-miterlimit:4;stroke-dasharray:none;stroke-opacity:1"
           id="path50902"
           inkscape:label="path43411 (контур)"
           sodipodi:nodetypes="cccccccc" />
      </g>
      <g
         id="g46841"
         inkscape:label="N">
        <path
           d="m 366.85449,231.16769 h -17.34375 l -29.625,-47.90625 v 47.90625 h -16.5 v -69.79687 h 21.51563 l 25.45312,39.98437 v -39.98437 h 16.5 z"
           style="font-weight:bold;-inkscape-font-specification:'sans-serif Bold';fill:#e9f0ff;fill-opacity:1;stroke:none;stroke-opacity:1"
           id="path43409"
           inkscape:label="path43409 (задний фон)" />
        <path
           d="m 366.85449,176.97139 v 54.1963 h -17.34375 l -29.625,-47.90625 v 47.90625 h -16.5 v -69.79687 h 21.51563 l 25.45312,39.98437 v -39.98437 h 16.5"
           style="font-weight:bold;-inkscape-font-specification:'sans-serif Bold';fill:none;fill-opacity:1;stroke:#e9f0ff;stroke-width:4.5;stroke-miterlimit:4;stroke-dasharray:none;stroke-opacity:1"
           id="path46884"
           inkscape:label="path46884 (обводка)"
           sodipodi:nodetypes="ccccccccccc" />
        <path
           d="m 366.85275,173.37139 0.002,57.7963 H 349.511 l -29.625,-47.90625 v 47.90625 h -16.5 v -69.79687 h 21.51563 l 25.45312,39.98437 v -39.98437 h 16.49826"
           style="font-weight:bold;-inkscape-font-specification:'sans-serif Bold';fill:none;fill-opacity:1;stroke:#ea03b8;stroke-width:3;stroke-miterlimit:4;stroke-dasharray:none;stroke-opacity:1"
           id="path46886"
           inkscape:label="path46886 (контур)"
           sodipodi:nodetypes="ccccccccccc" />
      </g>
    </g>
  </g>
</svg>
